<?xml version="1.0" encoding="utf-8"?>
<!-- Generator: Adobe Illustrator 23.0.2, SVG Export Plug-In . SVG Version: 6.00 Build 0)  -->
<svg version="1.1" id="Layer_1" xmlns="http://www.w3.org/2000/svg" xmlns:xlink="http://www.w3.org/1999/xlink" x="0px" y="0px"
	 viewBox="0 0 1920 1080" style="enable-background:new 0 0 1920 1080;" xml:space="preserve">
<style type="text/css">
	.st0{fill:none;stroke:#000000;stroke-width:20;stroke-miterlimit:10;}
	.st1{fill:#202020;}
	.st2{fill:none;stroke:#000000;stroke-miterlimit:10;}
</style>
<path class="st0" d="M961.1,767H843.2c-11.5,0-22.1-6.1-27.9-16.1L698.5,548.6c-5.8-10-5.8-22.2,0-32.2l116.8-202.3
	c5.8-10,16.4-16.1,27.9-16.1h233.6c11.5,0,22.1,6.1,27.9,16.1l116.8,202.3c5.8,10,5.8,22.2,0,32.2l-116.8,202.3
	c-5.8,10-16.4,16.1-27.9,16.1h-6.2"/>
<g>
	<g>
		<g>
			<path class="st1" d="M982.9,593.5c0.9,3.7,1.8,7.5,2.7,11.2l1.3,5.6c0.5,1.8,1,3.7,1.6,5.6c-0.5-2-1.1-3.9-1.6-5.9
				c-0.5-2-0.9-4-1.4-6c-0.9-4-1.8-8-2.7-12c-1.7-8-3.2-16.1-4.6-24.3c-2.7-16.3-4.9-32.8-6.5-49.3c-1.4-16.5-2.2-33.2-2.3-49.8
				c-0.1-16.6,0.6-33.2,1.9-49.7c1.3-16.5,3.4-32.9,6-49c0.3-2,0.7-4,1-6l0.5-3l0.2-1c0-0.2,0.1-0.4,0.1-0.7c0-0.3,0.1-0.5,0.1-0.8
				c0-0.3,0-0.6,0-1.1l0-0.7c0-0.3-0.1-0.7-0.1-1c0-0.2,0-0.3-0.1-0.6c-0.1-0.3-0.1-0.6-0.2-0.9c-0.1-0.3-0.2-0.6-0.3-0.8
				c-0.2-0.5-0.5-1-0.8-1.5c-0.4-0.6-0.5-0.7-1.3-1.6c-0.7-0.7-1.6-1.2-2.5-1.6c-0.9-0.4-1.8-0.6-2.9-0.7c-1-0.1-2.1,0-2.5,0.1
				c-1.1,0.2-2.5,0.8-2.8,1c-0.3,0.1-0.5,0.3-0.8,0.5c-0.3,0.2-0.5,0.4-0.6,0.4c-0.3,0.2-0.5,0.4-0.8,0.7c-0.1,0.1-0.2,0.2-0.3,0.3
				l-0.2,0.2l-0.4,0.5l-0.3,0.4l-0.3,0.4l-0.2,0.3c-0.3,0.4-0.5,0.8-0.8,1.1l-0.4,0.7l-1.6,2.6c-1.1,1.8-2.2,3.5-3.2,5.3
				c-4.3,7-8.6,14-12.9,21c-17.2,27.8-34.1,55.1-50.7,81.5c-4.3,6.5-12.8,19.6-17.1,26.1c-6.9,11.2-14.3,23-21.8,35.2
				c-0.1,0-0.1,0-0.1-0.1c0,0,0,0,0,0l-0.4-1.1c-0.1-0.4-0.3-0.8-0.4-1.3c-0.3-0.9-0.5-1.7-0.8-2.6c-1-3.5-1.8-7.3-2.5-11.1
				c-1.4-7.7-2.3-15.7-3-23.7c-0.2-2-0.3-4-0.5-6l-0.2-3c-0.1-2-0.2-4.1-0.3-6.2c-0.1-2.1-0.2-4.1-0.3-6.2c-0.1-2.1-0.1-4.1-0.2-6.2
				c-0.2-4.1-0.2-8.4-0.3-12.6l-0.1-3.2c0-1-0.2-1.8-0.2-2.8c-0.2-1.8-0.3-3.6-0.5-5.4l-0.1-1.4l-0.1-0.7l0-0.3l0-0.2
				c0,0,0-0.1,0-0.1l-0.7-1l-1.5-2c-0.2-0.3-0.5-0.7-0.7-1l-0.6-0.4l-1.3-0.9l-0.6-0.4c-0.2-0.1-0.3-0.1-0.5-0.2l-1-0.4l-0.5-0.2
				l-0.1,0c-0.1,0,0,0-0.2-0.1l-0.3,0l-1.1-0.1c-0.9,0-1.6,0-2.8,0.2l-0.8,0.1l-0.9,0.3l-0.9,0.3l-1.1,0.6c-1.4,0.8-3.1,1.8-4.9,4.8
				c-3.1,5.7-6,11.2-8.9,16.5c-3.6,6.7-7.1,13.3-10.4,19.5c-0.8,1.7-1.7,3.3-2.5,4.9c-0.8,1.6-1.5,3.1-2.2,4.5
				c-2.9,5.9-5.3,11.2-7.3,15.7c-4,8.9-6.2,14.4-6.2,14.4c-3.3,7.1-6.1,14.4-1.9,7.8c3.8-6.8,10.4-18.7,16.1-28.9
				c2.9-5.1,5.5-9.7,7.5-13.1c0.5-0.8,1-1.6,1.4-2.3c0.6-0.9,1.1-1.7,1.5-2.4c0.8-1.3,1.3-2,1.4-1.9c0,0-0.2,0.7-0.8,1.7
				c-0.5,0.9-1.2,2.3-2,3.9c-1.4,2.6-3.2,6-5.1,9.4c0.9,0.5-8.5,22-12.2,28.8c-3.3,7.1-24.3,48.8-27.5,55.9
				c-10.5,20.9,26.4-38.8,41.9-65.8c7.9-13.4,1.1,0.6,1.8,1c3.6-6.9,6.5-12,9.4-17c1.3-2.3,2.6-4.6,4.1-7.1c0.3-0.6,0.7-1.1,1-1.9
				c0,0.1,0.4-0.5,0.9-1.3c0.3-0.5,0.7-1.1,1.1-1.8c0.1-0.2,0.2-0.3,0.3-0.5l0.2-0.3l0.1-0.1l0-0.1c0,0,0-0.1,0,0c0,0.5,0,1,0,1.6
				c0,2.1,0,3.9,0.1,5.3c0,0,0,0.1,0.1,0.3c0,0,0,0,0,0c0,0.1,0,0.3,0,0.4c0,0.4,0.1,0.8,0.1,1.2c0.1,0.9,0.2,1.9,0.3,3.2
				c0.5,5,1.1,12.9,2.8,24.9c0.6,4,1.1,6,1.3,7c0.3,1,0.4,1,0.5,0.9c-0.3,0-0.3,0-0.5,0.1c1.1,4,2.3,10.1,4.5,16.3
				c0.1,0.4,0.3,1,0.6,1.6l0.7,1.8c0.2,0.6,0.5,1.2,0.7,1.8c0.3,0.6,0.6,1.1,0.9,1.7c0.3,0.6,0.6,1.1,0.8,1.7c0.3,0.6,0.6,1,0.9,1.5
				c0.6,1,1.2,2,1.9,2.8c2.7,3.5,5.6,5.6,8,6.8c0,0.3,0,0.3-0.1,0.5c1.3,0.6,2.6,1,3.9,1.4c0.7,0.1,1.4,0.4,2,0.3
				c0.7,0,1.5,0.1,1.8-0.1c1.7-0.5,3.9-1.5,6-3.7c1.1-1.1,1.9-2.7,2.9-4.2l2.8-4.5l4.5-7.3c4.1-6.6,8.2-13.2,12.1-20
				c0.2,0.1,0.2,0.1,0.4,0.3c2-3.3,4.1-6.6,5.6-9.1c1.5-2.5,2.6-4.1,2.7-4c0.2,0.1,0.2,0.1,0.4,0.3c4.3-6.5,11.9-20.1,12.4-19.8
				c-0.2-0.1-0.2-0.1-0.4-0.3c16.2-26.6,28.5-46.4,40.9-66.2c8.3-13.2,17-27.2,26-41.8c1.1-1.8,2.2-3.7,3.4-5.5
				c0.6-0.9,1.1-1.8,1.7-2.8l0.9-1.4l0-0.1c0,0,0,0,0,0c-0.2-0.2-0.5-0.3-0.7-0.4c-0.4-0.3-0.9-0.6-1.3-0.9
				c-0.4-0.3-0.8-0.6-1.2-0.9c-0.4-0.3-0.8-0.5-1.1-0.8c-0.4-0.3-0.7-0.6-1.1-0.9c-0.3-0.2-0.6-0.5-0.9-0.8c-1.2-1-1.9-2.2-1.9-2.5
				c0,0,0-0.1,0-0.1c0,0,0,0.1,0,0.1c0,0-0.1,0.1-0.1,0.1c-0.1,0-0.1,0.1-0.2,0.1c-0.2,0.1-0.5,0.2-0.7,0.2c-0.3,0.1-0.6,0.1-1,0.2
				c-0.3,0-0.7,0.1-1.1,0.1c-0.4,0-0.8,0-1.2,0c-0.9,0-1.8,0-2.8-0.2c-1-0.1-2.1-0.2-3.1-0.3c-0.1,0-0.2,0-0.4-0.1l-0.3,0l0,0l0,0
				c-0.2,1.1-0.4,2.1-0.5,3.2c-0.4,2.2-0.8,4.4-1.1,6.6c-1.5,8.9-2.7,17.9-3.7,27c-1,9.1-1.9,18.3-2.5,27.5
				c-0.3,4.6-0.5,9.2-0.8,13.9c-0.2,4.6-0.4,9.2-0.4,13.9c-0.3,18.5,0.1,36.8,1.4,54.6c0.5,7.9,1.7,15.8,1.6,7.8
				c0.6,7.9,1.4,15.8,2.4,23.7c1,7.8,1.5,9.8,1.9,11.7c0.5,1.9,0.9,3.9,2.1,11.6c5,31.1,12.8,62.1,22.6,91.9
				c9.7,29.9,21,59.2,33.2,88.1c12.2,28.9,25.3,57.3,39.3,85.3c7,14,14.3,27.9,21.8,41.6c7.6,13.7,15.4,27.3,24,40.7
				c-2-3.4-4-6.7-6-9.9c-1.9-3.2-3.7-6.4-5.5-9.5c-3.6-6.2-6.8-12.2-10.1-18.3c-1.7-3-3.2-6-4.9-9.1c-1.6-3.1-3.3-6.1-4.9-9.3
				c-3.3-6.3-6.7-12.8-10.3-19.7c0.2-0.1,0.7-0.3-2.8-7.3c-2.6-5.3-5.3-10.6-7.9-16.1c-2.6-5.4-5.2-10.9-7.8-16.4
				c-5.1-11-10.2-21.8-14.6-32.1c-2.2-5.2-4.5-10.1-6.5-14.9c-2-4.8-3.9-9.3-5.6-13.6c-0.9-2.1-1.7-4.2-2.5-6.1
				c-0.7-2-1.5-3.9-2.1-5.7c-1.3-3.6-2.5-6.8-3.5-9.6c-1.3-3.7-2.6-7.4-4.4-13c-0.9-2.8-2-6-3.4-9.9c-0.7-2-1.5-4.1-2.3-6.4
				c-0.8-2.3-1.7-4.9-2.6-7.7c2.5,7.4,5.4,14.7,8.1,22.1c0.2-0.1,0.7-0.3,0.7-0.3c-2.7-7.3-5.6-15.1-8.3-23.2
				c-1.4-4.1-2.8-8.2-4.2-12.3c-1.4-4.1-2.6-8.4-3.9-12.6c-1.3-4.2-2.7-8.4-3.8-12.6c-1.2-4.2-2.3-8.4-3.4-12.5
				c-0.6-2.1-1.1-4.1-1.7-6.2c-0.5-2-1-4.1-1.4-6.1c-0.9-4-1.8-8-2.7-11.8c0,0,0.5-0.1,0.7-0.2c-0.6-2.5-1.2-5.1-1.7-7.6
				c-0.5-2.5-1-5.1-1.5-7.7c-0.3-3.9,0.5-1.6,1.9,4.7c1.4,6.3,4.1,16.5,7.1,28.3c1.7,5.9,3.5,12.1,5.3,18.5
				c1.9,6.4,4.1,12.8,6.1,19.1c0.5,1.6,1,3.2,1.5,4.7c0.5,1.5,1.1,3.1,1.6,4.6c1.1,3,2.1,6,3.1,8.8c1,2.8,2,5.6,2.9,8.2
				c1,2.6,1.9,5,2.8,7.3c0.2-0.1,0.7-0.3,1-0.4l-2.7-7.3l-2.6-7.4l0.5-0.2c1,2.8,1.9,5.5,2.9,8.2c1,2.7,2,5.3,3,8
				c2,5.3,3.9,10.5,5.9,15.5c4.1,10.2,7.9,20.1,12.2,30c8.2,19.8,17.1,39.2,27,60.4c-0.8-1.8-1.9-3.9-3-6.4
				c-1.1-2.4-2.3-5.1-3.6-7.7c-2.4-5.3-4.9-10.6-6.5-14.2c0.2-0.1,0.5-0.2-2.7-7.3c12.6,28.5,29.2,63.7,44.3,90.9
				c3.9,6.7,0.8-0.4-9.6-21.3c-5.2-10.4-9.6-19.1-13.7-27.9c-2.1-4.4-4.2-8.8-6.4-13.4c-2.1-4.6-4.4-9.5-6.8-14.8l0.5-0.2
				c3.3,7.1,7.2,15.9,11.4,24.7c2.1,4.4,4.2,8.8,6.2,12.9c2.1,4.1,4,8,5.8,11.5c3.7,6.8-6.2-14.3-2.5-7.4c3.5,7,6.9,13.9,10.7,20.7
				c-1.3-2.6-2.7-5.3-4.2-8.1c-1.4-2.8-2.8-5.7-4.3-8.6c-1.5-2.9-3-5.9-4.5-8.9c-1.5-3-3-6.1-4.4-9.1c-6-12.2-11.6-24.6-16.3-35.2
				c-2.9-7.2-5.8-14.4-5.3-14.6c-15.8-35.4-26-64.7-32.3-87.1c-0.3-0.9-0.7-2.3-1.2-4.1c-0.6-1.8-1.3-3.9-2-6.3
				c-1.5-4.8-3.4-10.8-5.4-17.2c-1.9-6.5-3.8-13.4-5.7-20.1c-0.5-1.7-0.9-3.3-1.3-5c-0.4-1.6-0.8-3.3-1.2-4.9
				C984.3,599.4,983.6,596.3,982.9,593.5z"/>
		</g>
	</g>
</g>
<g>
	<g>
		<path class="st2" d="M170.7,1047.8"/>
	</g>
</g>
<g>
	<g>
		<g>
			<path class="st1" d="M888.7,688.5c-5.1,2.6-10.1,5.2-15.2,7.8c43.2-21.4,87.5-44,130.6-67.7c21.5-11.9,42.7-24.1,63-37.5
				c10.1-6.8,20-13.8,29.3-21.8c1.2-1,2.3-2,3.5-3c1.2-1,2.3-2.1,3.4-3.2c1.1-1.1,2.2-2.1,3.3-3.2c1.1-1.2,2.1-2.3,3.2-3.5
				c2.2-2.2,4.1-4.8,6.1-7.3c1-1.3,1.9-2.7,2.8-4l1.4-2c0.5-0.7,0.8-1.4,1.2-2.1c1.7-2.8,4.1-7.3,5.8-12.1c0.4-1.2,0.8-2.4,1.2-3.6
				c0.3-1.2,0.6-2.4,0.8-3.6c0.2-1.2,0.6-2.3,0.7-3.3c0.1-1,0.2-2,0.4-2.8c0.1-0.9,0.2-1.7,0.2-2.6c0-0.9,0-1.8,0.1-2.7
				c0-1.8-0.1-3.7-0.3-5.5c-0.4-3.7-1.3-7.5-2.5-11.1c-2.5-7.3-6.8-13.8-11.7-19.2c-4.9-5.5-10.4-10-16-14
				c-5.6-4-11.4-7.5-17.1-10.7c-5.7-3.3-11.4-6.3-16.8-9.3c-5.4-3-10.7-6-15.1-9.1c-2.2-1.5-4.3-3.1-5.9-4.7
				c-1.7-1.5-2.9-3.1-3.6-4.3c-0.4-0.6-0.5-1.1-0.7-1.6c0-0.1-0.1-0.2-0.1-0.3c0-0.1,0-0.2-0.1-0.3c0-0.2,0-0.6,0-0.8
				c0-1.2,0.3-2.6,0.9-4.2c1.4-3.3,3.8-6.9,6.4-10.1c2.6-3.2,5.3-6,7.6-8.3c2.3-2.3,4.3-4.2,5.6-5.5c1.4-1.3,2.1-2,2.1-2
				c1-0.9,2.1-1.7,3-2.5c0.9-0.8,1.7-1.5,2.2-2c1-1,0.8-1.4-1.7-0.1c-4.7,2.8-12.7,8.2-18.7,13.5c-3,2.6-5.5,5.2-7.2,7.2
				c-0.9,0.9-1.5,1.7-2,2.3c-0.5,0.5-0.8,0.8-0.9,0.7c-0.1-0.1,0.5-1.2,1.7-2.7c1.2-1.6,2.8-3.6,4.7-5.5c-0.4-0.4,1.9-3.8,5.2-7.4
				c3.3-3.6,7.6-7.3,9.9-8.9c2.2-1.8,10.2-7.6,18.8-12.6c4.3-2.5,8.7-4.9,12.4-6.7c3.7-1.8,6.7-3.1,8.1-3.6c4.1-1.3,4-1.6,1.2-1.4
				c-0.7,0.1-1.5,0.1-2.7,0.3c-1.1,0.2-2.3,0.5-3.6,0.8c-2.6,0.7-5.6,1.7-8.8,2.9c-6.5,2.4-14,5.6-21,9.4c-7,3.7-13.6,7.8-18.4,11.4
				c-2.4,1.8-3.6,2.7-4.2,3c-0.5,0.3-0.4-0.1,0.1-0.8c0.9-1.3,3-3.5,2.8-3.8c-4.7,3.9-8.2,7.1-11.5,10.5c-1.7,1.8-3.3,3.6-4.9,5.9
				c-0.4,0.6-0.8,1.1-1.2,1.7c-0.4,0.6-0.8,1.3-1.2,2c-0.8,1.3-1.5,2.9-2.3,4.6c0,0-0.1,0.2-0.2,0.5c-0.1,0.3-0.3,0.8-0.6,1.4
				c-0.5,1.2-1.1,3.1-1.6,5.5c-0.1,0.6-0.2,1.3-0.3,2c-0.1,0.7-0.2,1.4-0.2,2.2c0,1.5,0,3.2,0.3,5c0.5,3.6,2,7.3,4,10.4
				c2,3.1,4.4,5.8,6.9,8.2c2.5,2.3,5.1,4.3,7.6,6.1c5,3.6,9.8,6.3,13.6,8.5c0,0,1.3,0.7,4.5,2.4c3.2,1.7,8.2,4.3,15.5,8.4
				c4.8,2.7,4.9,2.6,5,2.3c-0.1,0.2-0.1,0.2-0.3,0.4c2.5,1.2,6,3.3,9.2,5.6c3.3,2.3,6.3,4.7,8.3,6.3c-0.2,0.2-0.2,0.2-0.3,0.4
				c4,3.1,7.4,6.6,10,10.4c2.6,3.8,4.3,7.8,5.2,12c-0.3,0-0.3,0-0.5,0.1c0.4,2.1,0.5,4.2,0.5,5.9c0,0.4,0,0.8,0,1.1
				c0,0.3-0.1,0.7-0.1,0.9c-0.1,0.5-0.2,0.8-0.2,0.8c-0.3,0-0.3,0-0.5,0c-0.1,0.6-0.2,1.2-0.2,1.9c0,0.7-0.3,1.4-0.4,2.1
				c-0.1,0.7-0.3,1.5-0.4,2.2c-0.2,0.7-0.4,1.4-0.6,2.1c-0.2,0.7-0.4,1.3-0.5,1.9c-0.2,0.6-0.4,1.1-0.6,1.5
				c-0.4,0.8-0.7,1.3-0.8,1.3c0.2,0.1,0.2,0.1,0.5,0.2c-0.2,0.5-0.4,1.1-0.7,1.6c-0.3,0.5-0.5,1-0.8,1.5c-0.3,0.5-0.5,1-0.8,1.5
				c-0.3,0.5-0.5,1-0.8,1.5c-1.3,1.9-2.4,3.8-3.9,5.5c-0.7,0.9-1.4,1.7-2,2.6c-0.7,0.8-1.5,1.6-2.2,2.4c-0.7,0.8-1.5,1.6-2.2,2.4
				c-0.8,0.8-1.6,1.5-2.3,2.2c-3,3-6.2,5.7-9.3,8.3c-3.3,2.5-6.4,5.1-9.8,7.5c-4.4,3.2-9.1,6.4-14,9.6c-4.9,3.2-9.9,6.5-15.2,9.7
				c-5.2,3.3-10.6,6.5-16,9.8c-5.5,3.2-11,6.5-16.7,9.8c-22.5,13-46,26-68.4,38.1c-5,2.6-9.8,5.7-4.5,3.5c-5,2.6-10,5.3-15,7.9
				c-10,5.2-4.7,3.3-14.7,8.5c-40,21.4-80.5,41.9-121,62.3c-40.6,20.4-81.2,40.6-121.6,61.4c20.4-10,35.8-17.2,56-27.6
				c0.1,0.2,0.3,0.7,5.4-1.9c30.5-15.1,65.8-33.4,81.4-40.2c5.2-2.3,10.6-4.2,25.8-11.9c-5.1,2.6-10.1,5.1-15.2,7.7
				c0.1,0.2,0.3,0.7,0.3,0.7c20.4-10,45.8-22.6,66.1-32.8c0,0,0.2,0.5,0.4,0.7l10.1-5.2c5.5-1.8-5.7,4.4-21.4,12.6
				c-15.7,8.2-35.9,18.5-48.5,25c0.1,0.2,0.3,0.7,0.5,0.9l10.1-5.1l0.2,0.5c-30.4,15.3-55.7,28.1-86.1,43.5
				c5.1-2.6,15.2-7.7,20.3-10.2c0.1,0.2,0.2,0.5,5.3-2.1c-20.3,10.2-45.7,22.7-65.8,33.4c-5,2.8,0.5,0.9,15.8-6.5
				c15.2-7.7,25.3-12.7,40.6-20.4l0.2,0.5c-10.1,5.1-25.5,12.5-35.5,17.9c-5,2.8,10.5-4.4,5.5-1.6c-5.1,2.6-10.2,5.1-15.1,7.9
				c15.2-7.7,35.4-18.1,50.7-25.5c5.2-2.3,10.4-4.6,10.6-4.2c25.2-13,45.8-22.6,61.6-29.1C848.4,709.4,873.6,696.3,888.7,688.5z"/>
		</g>
	</g>
</g>
</svg>
